Coordinates
version=1
nRows=12
nColumns=38
inDegrees=yes

Units are S.I. units (second, meters, Newtons, ...)
Angles are in degrees.

endheader
time	pelvis_tilt	pelvis_list	pelvis_rotation	pelvis_tx	pelvis_ty	pelvis_tz	hip_flexion_r	hip_adduction_r	hip_rotation_r	knee_angle_r	ankle_angle_r	subtalar_angle_r	mtp_angle_r	hip_flexion_l	hip_adduction_l	hip_rotation_l	knee_angle_l	ankle_angle_l	subtalar_angle_l	mtp_angle_l	lumbar_extension	lumbar_bending	lumbar_rotation	arm_flex_r	arm_add_r	arm_rot_r	elbow_flex_r	pro_sup_r	wrist_flex_r	wrist_dev_r	arm_flex_l	arm_add_l	arm_rot_l	elbow_flex_l	pro_sup_l	wrist_flex_l	wrist_dev_l
      1.45000000	     -1.00797792	     -1.02618085	      2.35292361	      0.30903429	      0.90868348	     -0.18446163	      3.56050643	      4.96033682	     -2.44650779	    -14.48269420	     12.46414008	    -10.52162263	      0.00000000	     32.13570656	     -0.11386566	     -5.83687985	    -49.21203341	      3.11397058	    -14.48091022	      0.00000000	     -4.07412685	      2.79557495	      1.65370303	     14.73026164	    -13.81697901	     45.60877785	     29.01794715	     44.46658197	      0.00000000	      0.00000000	    -11.97959792	     -9.39757457	     23.96634685	     23.53725303	     44.46658197	      0.00000000	      0.00000000
      1.46000000	     -1.14650700	     -1.13058198	      1.80676575	      0.32267363	      0.90756767	     -0.18315115	      1.99436035	      5.32511861	     -0.96195235	    -13.00562828	     12.43363276	    -11.87579897	      0.00000000	     32.62821080	     -0.44335722	     -6.49949754	    -45.58800836	      3.41508586	    -13.05208551	      0.00000000	     -3.98168226	      2.88829106	      2.20781240	     15.26859710	    -14.70853194	     46.02848354	     32.44252740	     44.49940041	      0.00000000	      0.00000000	    -12.70057449	     -8.82320709	     23.56978666	     21.34659667	     44.49940041	      0.00000000	      0.00000000
      1.47000000	     -1.42403620	     -1.23413166	      1.21708749	      0.33619303	      0.90595380	     -0.18186349	      0.86358947	      5.50900650	     -0.56023326	    -12.01316632	     13.00740580	    -11.60915942	      0.00000000	     33.58815448	     -1.00040821	     -8.21163085	    -42.17263708	      2.15170359	    -13.11133370	      0.00000000	     -3.74276420	      2.98337671	      2.92562608	     16.14972223	    -14.80118266	     45.86483647	     32.81967046	     44.50236399	      0.00000000	      0.00000000	    -13.77932371	     -8.69093312	     23.58974094	     21.01693701	     44.50236399	      0.00000000	      0.00000000
      1.48000000	     -1.42167257	     -1.27962818	      0.58944554	      0.35000742	      0.90432012	     -0.18070879	     -0.69613585	      5.68651517	      0.46492316	    -10.91575122	     13.16823877	    -12.46598366	      0.00000000	     33.47356526	     -1.03652358	     -8.05163887	    -38.02961221	      2.82542067	    -11.47077250	      0.00000000	     -3.84353333	      3.03267346	      3.68207654	     16.18090332	    -15.75724977	     44.33907832	     37.15757937	     44.55029218	      0.00000000	      0.00000000	    -14.56964949	     -8.40183910	     23.35828557	     20.00370776	     44.55029218	      0.00000000	      0.00000000
      1.49000000	     -1.46225571	     -1.30077982	     -0.05054709	      0.36379213	      0.90239168	     -0.17967164	     -2.00529268	      5.72008446	      0.96461661	    -10.18675671	     13.82376281	    -12.20527330	      0.00000000	     33.53710548	     -1.23289584	     -8.92048731	    -33.96009892	      2.52608936	    -10.83700245	      0.00000000	     -3.88841565	      3.06967947	      4.41222900	     17.00783572	    -15.80989676	     43.95622836	     37.64690087	     44.55469182	      0.00000000	      0.00000000	    -15.59784773	     -8.26140244	     23.36488539	     19.75244095	     44.55469182	      0.00000000	      0.00000000
      1.50000000	     -1.45518952	     -1.32189725	     -0.73905451	      0.37779986	      0.90031542	     -0.17872750	     -3.26604719	      5.72298495	      1.53419928	     -9.66204145	     14.48481429	    -12.06788193	      0.00000000	     33.37027959	     -1.39317714	     -9.52643233	    -29.82767331	      2.58057931	     -9.84443893	      0.00000000	     -3.97517594	      3.11108386	      5.17350551	     17.74549293	    -15.98534642	     43.67769886	     38.28426995	     44.55817359	      0.00000000	      0.00000000	    -16.66664191	     -8.05527218	     23.34475957	     19.45057288	     44.55817359	      0.00000000	      0.00000000
      1.51000000	     -1.29590418	     -1.31414232	     -1.34929018	      0.39178843	      0.89809475	     -0.17793809	     -4.79047745	      5.74974272	      2.68251569	     -9.00797207	     14.75824050	    -13.15047226	      0.00000000	     33.10432872	     -1.61647618	    -10.14312315	    -26.11528566	      2.88943854	     -7.81262114	      0.00000000	     -4.31776485	      3.13290239	      6.24753325	     15.21010242	    -16.55939598	     33.39990361	     47.49944272	     44.68317277	      0.00000000	      0.00000000	    -17.36625868	     -7.89662992	     21.98908159	     19.33121813	     44.68317277	      0.00000000	      0.00000000
      1.52000000	     -1.21690247	     -1.25579158	     -1.92456235	      0.40585007	      0.89566584	     -0.17732209	     -5.89035275	      5.62368841	      3.28598242	     -8.96391917	     15.68632279	    -13.17561369	      0.00000000	     32.80500931	     -1.65874092	    -10.47314801	    -22.32552448	      2.79389201	     -6.93593446	      0.00000000	     -4.49926894	      3.08488333	      6.91187592	     15.89647744	    -16.70526940	     33.36018308	     48.04967594	     44.68620908	      0.00000000	      0.00000000	    -18.24175625	     -7.73577048	     21.97505958	     19.11936910	     44.68620908	      0.00000000	      0.00000000
      1.53000000	     -1.10205310	     -1.18704531	     -2.40094848	      0.41976111	      0.89312288	     -0.17696771	     -6.94778911	      5.46684879	      3.69692803	     -9.07332092	     16.52841894	    -13.23522701	      0.00000000	     32.50411327	     -1.71619449	    -10.98552273	    -18.91014981	      2.65761291	     -5.76845586	      0.00000000	     -4.74761325	      3.02345981	      7.51191639	     16.50574784	    -16.89010689	     33.35713842	     48.87298076	     44.68925705	      0.00000000	      0.00000000	    -19.00352287	     -7.60530538	     21.93970019	     18.92617439	     44.68925705	      0.00000000	      0.00000000
      1.54000000	     -1.19639006	     -1.40806437	     -2.66651378	      0.43341276	      0.89006948	     -0.17682189	     -7.72137590	      5.67042521	      4.24732497	     -9.36395353	     17.19763436	    -13.16472103	      0.00000000	     32.66755265	     -1.98478139	    -10.96788389	    -16.30252087	      2.32405862	     -4.84574560	      0.00000000	     -4.77103231	      3.29412830	      7.95074943	     17.03334127	    -17.08060083	     33.29584415	     49.36335891	     44.69051573	      0.00000000	      0.00000000	    -19.64988495	     -7.53693267	     21.91922699	     18.75621769	     44.69051573	      0.00000000	      0.00000000
      1.55000000	     -0.79088059	     -1.09407008	     -3.10235225	      0.44799135	      0.88802413	     -0.17696456	     -8.91575061	      5.19020516	      4.55040001	     -9.88829176	     18.11869018	    -13.18561382	      0.00000000	     32.19280528	     -1.80074537	    -11.17966392	    -14.13124912	      2.03333253	     -4.20388017	      0.00000000	     -5.28843939	      2.93643371	      8.41258548	     17.45276231	    -17.30481058	     33.33634970	     50.65776343	     44.69366556	      0.00000000	      0.00000000	    -20.37893910	     -7.29233960	     21.85759704	     18.57730295	     44.69366556	      0.00000000	      0.00000000
      1.56000000	     -0.77063041	     -0.88906237	     -3.70686289	      0.46212731	      0.88523979	     -0.17689286	     -9.03208782	      4.64632450	      3.18764447	    -11.62573268	     20.13995621	    -10.35771147	      0.00000000	     32.45076027	     -1.78448116	    -10.53121306	    -13.07678171	      1.92706696	     -4.51571839	      0.00000000	     -5.41201293	      2.72890979	      9.29042417	     16.14039120	    -18.49300998	     31.44439506	     56.77021131	     44.72461335	      0.00000000	      0.00000000	    -20.84320717	     -7.15000829	     21.00458335	     18.47949163	     44.72461335	      0.00000000	      0.00000000
